# xmcd
#
# Track frame offsets:
#	150
#	20647
#	32452
#	54010
#	68942
#	106035
#	118342
#	142795
#	163037
#	192302
#	210505
#	234547
#	256255
#
# Disc length: 3682 seconds
#
# Revision: 0
# Processed by: cddbd v1.4PL0 Copyright (c) Steve Scherf et al.
# Submitted via: dBpowerAMP V4.0
#
DISCID=a80e600d
DTITLE=Dicky Greenwood Band - Feeling Blue
DYEAR=1900
DGENRE=Blues
TTITLE0=Feeling Blue
TTITLE1=She Made my Mind
TTITLE2=Am I Losing You
TTITLE3=Side Tracked
TTITLE4=Look At Me
TTITLE5=Long Tailed Cat
TTITLE6=I'm Your Man
TTITLE7=Guitar Greatest
TTITLE8=In The Mood
TTITLE9=Just Play the Blues
TTITLE10=Those Were the Days
TTITLE11=Little By Little
TTITLE12=Huclebuck
EXTD=
EXTT0=
EXTT1=
EXTT2=
EXTT3=
EXTT4=
EXTT5=
EXTT6=
EXTT7=
EXTT8=
EXTT9=
EXTT10=
EXTT11=
EXTT12=
PLAYORDER=
